# xmcd
#
# Track frame offsets:
#	187
#	15192
#	30855
#	41577
#	53817
#	66225
#	77565
#	92202
#	101537
#	113412
#
# Disc length: 1701 seconds
#
# Revision: 0
# Processed by: cddbd v1.5PL3 Copyright (c) Steve Scherf et al.
# Submitted via: audiograbber 1.83.01
#
DISCID=6706a30a
DTITLE=Billie Jo Spears - Misty Blue
DYEAR=1992
DGENRE=Country
TTITLE0=Midnight Love
TTITLE1=Silver Wings and golden Rings
TTITLE2=What I´ve got in mind
TTITLE3=Misty Blue
TTITLE4=Stay away fromt the apple tree
TTITLE5=Lonely Heart Club
TTITLE6=Mr. Walker it's all over
TTITLE7=Never did like Whiskey
TTITLE8=Marty Gray
TTITLE9=Whishing won't make it so
EXTD=
EXTT0=
EXTT1=
EXTT2=
EXTT3=
EXTT4=
EXTT5=
EXTT6=
EXTT7=
EXTT8=
EXTT9=
PLAYORDER=
